<svg width="40" height="39" viewBox="0 0 40 39" fill="none" xmlns="http://www.w3.org/2000/svg">
<path d="M27.7387 9.4575C27.7387 9.4575 28.5674 10.27 27.7387 9.4575C26.6279 8.18939 26.0157 6.56083 26.0162 4.875H20.9949V25.025C20.9562 26.1154 20.4958 27.1483 19.7108 27.906C18.9258 28.6638 17.8773 29.0873 16.7862 29.0875C14.4787 29.0875 12.5612 27.2025 12.5612 24.8625C12.5612 22.0675 15.2587 19.9712 18.0374 20.8325V15.6975C12.4312 14.95 7.52368 19.305 7.52368 24.8625C7.52368 30.2738 12.0087 34.125 16.7699 34.125C21.8724 34.125 26.0162 29.9813 26.0162 24.8625V14.6413C28.0523 16.1035 30.4969 16.8881 33.0037 16.8838V11.8625C33.0037 11.8625 29.9487 12.0088 27.7387 9.4575Z" fill="black" fill-opacity="0.7"/>
</svg>
