<svg width="40" height="39" viewBox="0 0 40 39" fill="none" xmlns="http://www.w3.org/2000/svg">
<path d="M4.01691 19.5032C4.01782 23.3729 5.39892 27.1153 7.91197 30.0579C10.425 33.0004 13.9052 34.9501 17.727 35.5566V24.1995H13.6044V19.5032H17.7319V15.9282C17.6408 15.0915 17.735 14.245 18.0079 13.4487C18.2807 12.6525 18.7256 11.9262 19.3108 11.3212C19.896 10.7163 20.6073 10.2477 21.394 9.94859C22.1808 9.64951 23.0237 9.52733 23.863 9.59073C25.0818 9.61023 26.3005 9.7191 27.503 9.91573V13.9116H25.449C25.0999 13.8659 24.745 13.8992 24.4105 14.0091C24.076 14.119 23.7705 14.3026 23.5165 14.5464C23.2626 14.7903 23.0666 15.0881 22.9432 15.4178C22.8198 15.7475 22.7721 16.1008 22.8035 16.4515V19.5032H27.3064L26.5865 24.2011H22.8035V35.5566C25.8709 35.0718 28.7352 33.7183 31.0572 31.6562C33.3792 29.5942 35.0617 26.9099 35.9055 23.9213C36.7493 20.9327 36.7191 17.7649 35.8185 14.7929C34.9178 11.8209 33.1844 9.16925 30.8235 7.15184C28.4626 5.13442 25.5731 3.83574 22.497 3.40956C19.4209 2.98338 16.2872 3.44754 13.4667 4.7471C10.6462 6.04665 8.25721 8.12717 6.58246 10.7423C4.90772 13.3575 4.0174 16.3978 4.01691 19.5032V19.5032Z" fill="black" fill-opacity="0.7"/>
</svg>
