<svg width="40" height="39" viewBox="0 0 40 39" fill="none" xmlns="http://www.w3.org/2000/svg">
<path d="M20.2637 11.6886C15.9409 11.6886 12.4522 15.1773 12.4522 19.5C12.4522 23.8228 15.9409 27.3114 20.2637 27.3114C24.5864 27.3114 28.0751 23.8228 28.0751 19.5C28.0751 15.1773 24.5864 11.6886 20.2637 11.6886ZM20.2637 24.5769C17.4682 24.5769 15.1868 22.2955 15.1868 19.5C15.1868 16.7045 17.4682 14.4232 20.2637 14.4232C23.0592 14.4232 25.3405 16.7045 25.3405 19.5C25.3405 22.2955 23.0592 24.5769 20.2637 24.5769ZM28.395 9.54817C27.3857 9.54817 26.5707 10.3632 26.5707 11.3725C26.5707 12.3818 27.3857 13.1968 28.395 13.1968C29.4043 13.1968 30.2193 12.3856 30.2193 11.3725C30.2196 11.1328 30.1727 10.8955 30.0811 10.674C29.9895 10.4525 29.8551 10.2513 29.6857 10.0818C29.5162 9.91236 29.315 9.778 29.0935 9.68642C28.872 9.59485 28.6347 9.54787 28.395 9.54817V9.54817ZM35.4904 19.5C35.4904 17.3977 35.5095 15.3144 35.3914 13.2158C35.2733 10.7783 34.7173 8.61506 32.9349 6.83264C31.1486 5.04641 28.9892 4.49416 26.5517 4.3761C24.4493 4.25803 22.366 4.27707 20.2675 4.27707C18.1651 4.27707 16.0818 4.25803 13.9833 4.3761C11.5458 4.49416 9.38252 5.05022 7.6001 6.83264C5.81386 8.61887 5.26162 10.7783 5.14355 13.2158C5.02549 15.3182 5.04453 17.4015 5.04453 19.5C5.04453 21.5986 5.02549 23.6857 5.14355 25.7842C5.26162 28.2217 5.81767 30.385 7.6001 32.1674C9.38633 33.9536 11.5458 34.5059 13.9833 34.6239C16.0856 34.742 18.1689 34.723 20.2675 34.723C22.3698 34.723 24.4531 34.742 26.5517 34.6239C28.9892 34.5059 31.1524 33.9498 32.9349 32.1674C34.7211 30.3812 35.2733 28.2217 35.3914 25.7842C35.5133 23.6857 35.4904 21.6024 35.4904 19.5V19.5ZM32.1389 28.4807C31.8608 29.1738 31.5257 29.6918 30.9887 30.225C30.4517 30.762 29.9375 31.0972 29.2443 31.3752C27.241 32.1712 22.4841 31.9922 20.2637 31.9922C18.0433 31.9922 13.2825 32.1712 11.2792 31.379C10.586 31.101 10.0681 30.7658 9.53486 30.2288C8.99785 29.6918 8.66269 29.1777 8.38467 28.4845C7.59248 26.4774 7.77148 21.7204 7.77148 19.5C7.77148 17.2796 7.59248 12.5189 8.38467 10.5155C8.66269 9.82239 8.99785 9.30442 9.53486 8.77121C10.0719 8.23801 10.586 7.89905 11.2792 7.62102C13.2825 6.82883 18.0433 7.00783 20.2637 7.00783C22.4841 7.00783 27.2448 6.82883 29.2481 7.62102C29.9413 7.89905 30.4593 8.2342 30.9925 8.77121C31.5295 9.30823 31.8646 9.82239 32.1427 10.5155C32.9349 12.5189 32.7559 17.2796 32.7559 19.5C32.7559 21.7204 32.9349 26.4774 32.1389 28.4807Z" fill="black" fill-opacity="0.7"/>
</svg>
